<svg xmlns="http://www.w3.org/2000/svg" xmlns:xlink="http://www.w3.org/1999/xlink" width="209.205" height="174.912" viewBox="0 0 209.205 174.912">
  <defs>
    <linearGradient id="linear-gradient" x1="0.5" x2="0.5" y2="1" gradientUnits="objectBoundingBox">
      <stop offset="0" stop-color="#045de9"/>
      <stop offset="1" stop-color="#3a5897"/>
    </linearGradient>
  </defs>
  <g id="undraw_Chatting_re_j55r" transform="translate(0 0)">
    <ellipse id="Ellipse_39" data-name="Ellipse 39" cx="82.621" cy="4.225" rx="82.621" ry="4.225" transform="translate(15.643 166.462)" fill="#f2f2f2"/>
    <path id="Path_267" data-name="Path 267" d="M500.938,118H500V92.285A14.882,14.882,0,0,0,485.117,77.4H430.642A14.882,14.882,0,0,0,415.76,92.285V233.345a14.882,14.882,0,0,0,14.882,14.882h54.475A14.882,14.882,0,0,0,500,233.345V136.3h.939Z" transform="translate(-354.402 -77.403)" fill="url(#linear-gradient)"/>
    <path id="Path_268" data-name="Path 268" d="M510.221,105.011V245.864a11.114,11.114,0,0,1-11.114,11.114H444.37a11.114,11.114,0,0,1-11.114-11.114V105.011A11.114,11.114,0,0,1,444.37,93.9h6.64a5.283,5.283,0,0,0,4.889,7.274h31.208A5.283,5.283,0,0,0,492,93.9h7.11a11.114,11.114,0,0,1,11.114,11.114Z" transform="translate(-367.792 -90.025)" fill="#fff"/>
    <path id="Path_269" data-name="Path 269" d="M619.948,382.294q-.546.285-1.11.54-.514.232-1.044.437l-.392.148a21.009,21.009,0,0,1-3.192.88q-.806.158-1.634.249-.683.078-1.38.11c-.331.016-.662.023-1,.023a21.089,21.089,0,0,1-3.934-.369c-.338-.061-.669-.134-1-.214a20.838,20.838,0,0,1-4.617-1.7c-.131-.066-.263-.136-.394-.2-.195-.1-.385-.211-.575-.324.091-.127.19-.251.291-.373a12.448,12.448,0,0,1,18.512-.962,12.734,12.734,0,0,1,1.188,1.375C619.767,382.034,619.859,382.163,619.948,382.294Z" transform="translate(-495.153 -306.573)" fill="#6c63ff"/>
    <circle id="Ellipse_40" data-name="Ellipse 40" cx="10.306" cy="10.306" r="10.306" transform="translate(105.209 44.797)" fill="#2f2e41"/>
    <circle id="Ellipse_41" data-name="Ellipse 41" cx="7.671" cy="7.671" r="7.671" transform="translate(104.167 55.642) rotate(-28.663)" fill="#a0616a"/>
    <path id="Path_270" data-name="Path 270" d="M628.072,293.513a10.433,10.433,0,0,1-5.962,1.843,6.394,6.394,0,0,0,2.534,1.043,21.037,21.037,0,0,1-8.593.048,5.563,5.563,0,0,1-1.8-.618,2.276,2.276,0,0,1-1.11-1.485,3.068,3.068,0,0,1,1.523-2.715,11.233,11.233,0,0,1,9.439-1.886,5.169,5.169,0,0,1,2.8,1.58,2.547,2.547,0,0,1,.235,3.024Z" transform="translate(-505.434 -239.644)" fill="#2f2e41"/>
    <path id="Path_271" data-name="Path 271" d="M575.618,230.173a21.122,21.122,0,0,0-10.994,39.158l.136.08q.169.1.338.2c.19.113.38.221.575.324.131.068.263.138.394.2a20.839,20.839,0,0,0,4.617,1.7c.331.08.662.153,1,.214a21.082,21.082,0,0,0,3.934.368c.333,0,.664-.007,1-.023q.7-.032,1.38-.11.828-.092,1.634-.249a21.01,21.01,0,0,0,3.192-.88l.392-.148q.532-.2,1.044-.437.563-.254,1.11-.54a21.31,21.31,0,0,0,8.694-8.443c.009-.019.021-.038.031-.056a21.126,21.126,0,0,0-18.472-31.363Zm18.088,31.089c-.019.033-.035.066-.054.1a20.7,20.7,0,0,1-8.562,8.29q-.539.282-1.1.528c-.307.138-.622.27-.939.392-.134.052-.27.1-.406.15a20.124,20.124,0,0,1-2.753.789,19.889,19.889,0,0,1-2.1.331c-.434.047-.875.08-1.319.1-.284.012-.57.019-.857.019a20.361,20.361,0,0,1-3.807-.354,20.084,20.084,0,0,1-2.26-.554,20.771,20.771,0,0,1-3.284-1.331c-.122-.063-.244-.127-.364-.192-.171-.092-.345-.185-.514-.286-.127-.07-.254-.146-.378-.221-.073-.042-.146-.087-.218-.131a20.671,20.671,0,1,1,28.913-7.621Z" transform="translate(-460.57 -194.315)" fill="#3f3d56"/>
    <path id="Path_272" data-name="Path 272" d="M608.555,263.576a2.064,2.064,0,0,0-2.657-1.532,3.341,3.341,0,0,0-2.072,2.627,3.769,3.769,0,0,0,.508,2.845,2.593,2.593,0,0,0,2.57,1.114,2.981,2.981,0,0,0,2.089-2.423,8.759,8.759,0,0,0-.216-3.359Z" transform="translate(-498.258 -218.636)" fill="#2f2e41"/>
    <path id="Path_273" data-name="Path 273" d="M675.537,270.673a2.064,2.064,0,0,0-2.657-1.532,3.341,3.341,0,0,0-2.072,2.627,3.769,3.769,0,0,0,.508,2.845,2.593,2.593,0,0,0,2.57,1.114,2.981,2.981,0,0,0,2.089-2.423,8.761,8.761,0,0,0-.216-3.359Z" transform="translate(-549.518 -224.067)" fill="#2f2e41"/>
    <path id="Path_274" data-name="Path 274" d="M232.886,216.764a1.051,1.051,0,0,1-.776-.344l-11.647-12.706a1.413,1.413,0,0,0-1.039-.457H157.876a3.527,3.527,0,0,1-3.523-3.523v-22.2a3.527,3.527,0,0,1,3.523-3.523h79.74a3.527,3.527,0,0,1,3.523,3.523v22.2a3.527,3.527,0,0,1-3.523,3.523h-2.261a1.411,1.411,0,0,0-1.409,1.41v11.04a1.05,1.05,0,0,1-.674.985A1.063,1.063,0,0,1,232.886,216.764Z" transform="translate(-154.353 -151.339)" fill="#fff"/>
    <path id="Path_275" data-name="Path 275" d="M232.886,216.764a1.051,1.051,0,0,1-.776-.344l-11.647-12.706a1.413,1.413,0,0,0-1.039-.457H157.876a3.527,3.527,0,0,1-3.523-3.523v-22.2a3.527,3.527,0,0,1,3.523-3.523h79.74a3.527,3.527,0,0,1,3.523,3.523v22.2a3.527,3.527,0,0,1-3.523,3.523h-2.261a1.411,1.411,0,0,0-1.409,1.41v11.04a1.05,1.05,0,0,1-.674.985A1.063,1.063,0,0,1,232.886,216.764Zm-75.01-42.279a3.057,3.057,0,0,0-3.053,3.053v22.2a3.057,3.057,0,0,0,3.054,3.054h61.548a1.883,1.883,0,0,1,1.385.609L232.456,216.1a.587.587,0,0,0,1.02-.4v-11.04a1.881,1.881,0,0,1,1.879-1.879h2.261a3.057,3.057,0,0,0,3.054-3.054v-22.2a3.057,3.057,0,0,0-3.054-3.053Z" transform="translate(-154.353 -151.339)" fill="#3f3d56"/>
    <path id="Path_285" data-name="Path 285" d="M3.083,0A3.083,3.083,0,1,1,0,3.083,3.083,3.083,0,0,1,3.083,0Z" transform="translate(5.559 26.303)" fill="url(#linear-gradient)"/>
    <path id="Path_276" data-name="Path 276" d="M251.871,264.548H179.324a1.644,1.644,0,1,1,0-3.288h72.547a1.644,1.644,0,1,1,0,3.288Z" transform="translate(-172.204 -218.105)" fill="#e6e6e6"/>
    <path id="Path_277" data-name="Path 277" d="M228.237,234.779H179.324a1.644,1.644,0,1,1,0-3.288h48.913a1.644,1.644,0,1,1,0,3.288Z" transform="translate(-172.204 -195.323)" fill="#e6e6e6"/>
    <path id="Path_278" data-name="Path 278" d="M683.771,537.692a1.05,1.05,0,0,1-.674-.985v-11.04a1.411,1.411,0,0,0-1.409-1.409h-2.261a3.527,3.527,0,0,1-3.523-3.523v-22.2a3.527,3.527,0,0,1,3.523-3.523h79.741a3.527,3.527,0,0,1,3.523,3.523v22.2a3.527,3.527,0,0,1-3.523,3.523H697.619a1.413,1.413,0,0,0-1.039.457l-11.647,12.706a1.05,1.05,0,0,1-.776.344,1.061,1.061,0,0,1-.386-.073Z" transform="translate(-553.485 -396.994)" fill="#fff"/>
    <path id="Path_279" data-name="Path 279" d="M683.771,537.692a1.05,1.05,0,0,1-.674-.985v-11.04a1.411,1.411,0,0,0-1.409-1.409h-2.261a3.527,3.527,0,0,1-3.523-3.523v-22.2a3.527,3.527,0,0,1,3.523-3.523h79.741a3.527,3.527,0,0,1,3.523,3.523v22.2a3.527,3.527,0,0,1-3.523,3.523H697.619a1.413,1.413,0,0,0-1.039.457l-11.647,12.706a1.05,1.05,0,0,1-.776.344,1.061,1.061,0,0,1-.386-.073Zm-4.344-42.206a3.057,3.057,0,0,0-3.054,3.054v22.2a3.057,3.057,0,0,0,3.054,3.054h2.261a1.881,1.881,0,0,1,1.879,1.879v11.04a.587.587,0,0,0,1.02.4L696.234,524.4a1.883,1.883,0,0,1,1.385-.609h61.548a3.057,3.057,0,0,0,3.054-3.054v-22.2a3.057,3.057,0,0,0-3.054-3.054Z" transform="translate(-553.485 -396.994)" fill="#3f3d56"/>
    <path id="Path_280" data-name="Path 280" d="M531.861,685.527a20.906,20.906,0,0,1-21.982.35,12.706,12.706,0,0,1,2.207-2.969,12.542,12.542,0,0,1,19.7,2.481C531.807,685.433,531.836,685.48,531.861,685.527Z" transform="translate(-426.43 -537.956)" fill="#3a5897"/>
    <circle id="Ellipse_43" data-name="Ellipse 43" cx="10.375" cy="10.375" r="10.375" transform="translate(83.148 115.597)" fill="#2f2e41"/>
    <circle id="Ellipse_44" data-name="Ellipse 44" cx="7.722" cy="7.722" r="7.722" transform="translate(83.987 132.658) rotate(-61.337)" fill="#ffb8b8"/>
    <path id="Path_281" data-name="Path 281" d="M522.25,595.314a10.5,10.5,0,0,0,6,1.855,6.438,6.438,0,0,1-2.551,1.049,21.179,21.179,0,0,0,8.65.049,5.6,5.6,0,0,0,1.811-.622,2.292,2.292,0,0,0,1.118-1.495,3.089,3.089,0,0,0-1.533-2.733,11.308,11.308,0,0,0-9.5-1.9,5.2,5.2,0,0,0-2.814,1.59,2.564,2.564,0,0,0-.237,3.044Z" transform="translate(-435.897 -470.585)" fill="#2f2e41"/>
    <path id="Path_282" data-name="Path 282" d="M486.662,583.455a21.118,21.118,0,1,1,11.4-3.337A21.118,21.118,0,0,1,486.662,583.455Zm0-41.78a20.657,20.657,0,1,0,20.655,20.656A20.658,20.658,0,0,0,486.662,541.675Z" transform="translate(-392.504 -432.349)" fill="#3f3d56"/>
    <circle id="Ellipse_45" data-name="Ellipse 45" cx="3.083" cy="3.083" r="3.083" transform="translate(129.256 101.413)" fill="#6c63ff"/>
    <path id="Path_283" data-name="Path 283" d="M778.87,584.548H706.324a1.644,1.644,0,1,1,0-3.288h72.547a1.644,1.644,0,0,1,0,3.288Z" transform="translate(-575.507 -462.994)" fill="#e6e6e6"/>
    <path id="Path_284" data-name="Path 284" d="M755.237,554.779H706.324a1.644,1.644,0,1,1,0-3.288h48.913a1.644,1.644,0,0,1,0,3.288Z" transform="translate(-575.507 -440.213)" fill="#e6e6e6"/>
    <ellipse id="Ellipse_46" data-name="Ellipse 46" cx="5.752" cy="0.638" rx="5.752" ry="0.638" transform="translate(124.435 141.523)" fill="#f2f2f2"/>
    <ellipse id="Ellipse_47" data-name="Ellipse 47" cx="5.752" cy="0.638" rx="5.752" ry="0.638" transform="translate(73.031 66.412)" fill="#f2f2f2"/>
  </g>
</svg>
