<svg id="svgexport-6_64_" data-name="svgexport-6 (64)" xmlns="http://www.w3.org/2000/svg" width="48.802" height="48.802" viewBox="0 0 48.802 48.802">
  <path id="Path_293" data-name="Path 293" d="M0,48.8,3.366,36.6A24.271,24.271,0,0,1,24.317,0,24.511,24.511,0,0,1,48.8,24.233,24.8,24.8,0,0,1,24.317,48.8a24.494,24.494,0,0,1-11.864-3.366Z" transform="translate(0 0)" fill="#ededed"/>
  <path id="Path_294" data-name="Path 294" d="M53.057,80.992l.757.421a19.978,19.978,0,0,0,10.518,3.113A20.4,20.4,0,0,0,84.526,64.163a20.195,20.195,0,0,0-40.388,0,20.383,20.383,0,0,0,3.113,10.854l.5.757-1.935,7.068Z" transform="translate(-39.931 -39.931)" fill="#55cd6c"/>
  <path id="Path_295" data-name="Path 295" d="M135.184,135.146l-1.6-.084a1.911,1.911,0,0,0-1.346.5,6.971,6.971,0,0,0-2.356,3.618c-.589,2.524.337,5.553,2.524,8.582a25.5,25.5,0,0,0,13.8,10.013,6.836,6.836,0,0,0,5.722-.673,4.964,4.964,0,0,0,2.188-3.2l.252-1.178a.846.846,0,0,0-.421-.926l-5.3-2.44a.8.8,0,0,0-1.01.252l-2.1,2.692a.654.654,0,0,1-.673.168,16.352,16.352,0,0,1-8.835-7.573.635.635,0,0,1,.084-.673l2.019-2.272a1.036,1.036,0,0,0,.168-.841l-2.44-5.469a.733.733,0,0,0-.673-.5" transform="translate(-117.346 -122.188)" fill="#fefefe"/>
</svg>
