<svg xmlns="http://www.w3.org/2000/svg" width="19.126" height="19.126" viewBox="0 0 19.126 19.126">
  <g id="svgexport-6_56_" data-name="svgexport-6 (56)" transform="translate(-10.696 -10.696)">
    <path id="Path_256" data-name="Path 256" d="M24.873,30.724h0c1.045,0,2.384-.894,4.094-2.732a1,1,0,0,0-.022-1.391l-3.239-3.24a1,1,0,0,0-1.412,0l-1.332,1.332a.68.68,0,0,1-.96,0l-5.275-5.275a.68.68,0,0,1,0-.96l1.332-1.332a1,1,0,0,0,0-1.412l-3.239-3.24a1,1,0,0,0-1.391-.022C11.59,14.164,10.7,15.5,10.7,16.548c0,5.035,9.142,14.177,14.177,14.177Zm.423-6.952,3.239,3.24a.42.42,0,0,1,.008.586c-.129.139-.254.269-.376.394L24.325,24.15l.378-.378a.42.42,0,0,1,.592,0ZM14.113,12.763a.417.417,0,0,1,.3.123l3.239,3.239a.419.419,0,0,1,0,.592l-.378.378-3.841-3.841c.125-.122.255-.247.394-.376a.425.425,0,0,1,.29-.115Zm-1.092.9,3.839,3.839-.544.544a1.258,1.258,0,0,0,0,1.78L21.592,25.1a1.258,1.258,0,0,0,1.78,0l.544-.544L27.755,28.4c-1.478,1.417-2.373,1.746-2.881,1.746h0c-4.7,0-13.6-8.9-13.6-13.6,0-.508.328-1.4,1.746-2.882Z" transform="translate(0 -0.901)" fill="#3a5897"/>
    <path id="Path_257" data-name="Path 257" d="M35.991,10.7a.29.29,0,1,0,0,.58,8.428,8.428,0,0,1,8.418,8.418.29.29,0,0,0,.58,0,9.008,9.008,0,0,0-9-9Z" transform="translate(-15.165)" fill="#3a5897"/>
    <path id="Path_258" data-name="Path 258" d="M35.991,17.266a6.068,6.068,0,0,1,6.061,6.061.29.29,0,0,0,.58,0,6.648,6.648,0,0,0-6.641-6.641.29.29,0,1,0,0,.58Z" transform="translate(-15.165 -3.633)" fill="#3a5897"/>
    <path id="Path_259" data-name="Path 259" d="M35.99,23.256a3.708,3.708,0,0,1,3.7,3.7.29.29,0,1,0,.58,0,4.289,4.289,0,0,0-4.284-4.284.29.29,0,1,0,0,.58Z" transform="translate(-15.165 -7.266)" fill="#3a5897"/>
  </g>
</svg>
