<svg xmlns="http://www.w3.org/2000/svg" width="11.853" height="14.594" viewBox="0 0 11.853 14.594">
  <g id="svgexport-6_50_" data-name="svgexport-6 (50)" transform="translate(0.003 0.002)">
    <path id="Path_237" data-name="Path 237" d="M222.74,154.7a.342.342,0,0,0-.342.342v6.46a.342.342,0,0,0,.684,0v-6.46A.342.342,0,0,0,222.74,154.7Zm0,0" transform="translate(-214.8 -149.417)" fill="#191c25"/>
    <path id="Path_238" data-name="Path 238" d="M104.74,154.7a.342.342,0,0,0-.342.342v6.46a.342.342,0,1,0,.684,0v-6.46A.342.342,0,0,0,104.74,154.7Zm0,0" transform="translate(-100.833 -149.417)" fill="#191c25"/>
    <path id="Path_239" data-name="Path 239" d="M.967,4.343v8.421a1.886,1.886,0,0,0,.5,1.3,1.683,1.683,0,0,0,1.221.528H9.157a1.683,1.683,0,0,0,1.221-.528,1.886,1.886,0,0,0,.5-1.3V4.343a1.306,1.306,0,0,0-.335-2.567H8.794V1.349A1.343,1.343,0,0,0,7.441,0H4.406a1.343,1.343,0,0,0-1.354,1.35v.427H1.3A1.306,1.306,0,0,0,.967,4.343Zm8.189,9.566H2.69a1.082,1.082,0,0,1-1.039-1.145V4.373H10.2v8.391a1.082,1.082,0,0,1-1.039,1.145ZM3.736,1.349a.658.658,0,0,1,.67-.666H7.441a.658.658,0,0,1,.67.666v.427H3.736ZM1.3,2.459h9.242a.615.615,0,1,1,0,1.23H1.3a.615.615,0,1,1,0-1.23Zm0,0" transform="translate(0 0)" fill="#191c25"/>
    <path id="Path_240" data-name="Path 240" d="M163.74,154.7a.342.342,0,0,0-.342.342v6.46a.342.342,0,1,0,.684,0v-6.46A.342.342,0,0,0,163.74,154.7Zm0,0" transform="translate(-157.817 -149.417)" fill="#191c25"/>
  </g>
</svg>
