<?xml version="1.0" encoding="utf-8"?>
<!-- Generator: Adobe Illustrator 23.0.1, SVG Export Plug-In . SVG Version: 6.00 Build 0)  -->
<svg version="1.1" id="Layer_1" xmlns="http://www.w3.org/2000/svg" xmlns:xlink="http://www.w3.org/1999/xlink" x="0px" y="0px"
	 viewBox="0 0 100 100" style="enable-background:new 0 0 100 100;" xml:space="preserve">
<path d="M80,65c-5.15,0-9.69,2.61-12.4,6.57L34.18,54.85C34.7,53.33,35,51.7,35,50s-0.3-3.33-0.82-4.85L67.6,28.43
	C70.31,32.39,74.85,35,80,35c8.27,0,15-6.73,15-15c0-8.27-6.73-15-15-15s-15,6.73-15,15c0,1.7,0.3,3.33,0.82,4.85L32.4,41.57
	C29.69,37.61,25.15,35,20,35c-8.27,0-15,6.73-15,15c0,8.27,6.73,15,15,15c5.15,0,9.69-2.61,12.4-6.57l33.42,16.72
	C65.3,76.67,65,78.3,65,80c0,8.27,6.73,15,15,15s15-6.73,15-15C95,71.73,88.27,65,80,65z M80,9c6.07,0,11,4.93,11,11s-4.93,11-11,11
	s-11-4.93-11-11S73.93,9,80,9z M20,61c-6.07,0-11-4.93-11-11s4.93-11,11-11s11,4.93,11,11S26.07,61,20,61z M80,91
	c-6.07,0-11-4.93-11-11s4.93-11,11-11s11,4.93,11,11S86.07,91,80,91z"/>
</svg>
