<?xml version="1.0" standalone="no"?>
<!DOCTYPE svg PUBLIC "-//W3C//DTD SVG 20010904//EN"
 "http://www.w3.org/TR/2001/REC-SVG-20010904/DTD/svg10.dtd">
<svg version="1.0" xmlns="http://www.w3.org/2000/svg"
 width="1600.000000pt" height="1600.000000pt" viewBox="0 0 1600.000000 1600.000000"
 preserveAspectRatio="xMidYMid meet">

<g transform="translate(0.000000,1600.000000) scale(0.100000,-0.100000)"
fill="#000000" stroke="none">
<path d="M9740 14493 c-214 -12 -498 -52 -730 -104 -1099 -244 -2083 -914
-2725 -1854 -118 -174 -177 -269 -253 -413 -54 -102 -55 -103 -121 -136 -562
-284 -1155 -795 -1549 -1338 -113 -156 -245 -366 -324 -515 l-60 -114 -70 -35
c-359 -181 -764 -480 -1088 -804 -697 -697 -1139 -1583 -1275 -2555 -96 -682
-28 -1425 187 -2050 306 -891 839 -1627 1582 -2184 484 -363 1085 -642 1671
-775 1214 -276 2455 -52 3496 631 484 316 956 788 1272 1272 82 124 187 301
232 390 34 68 38 72 108 107 117 59 361 210 508 314 425 302 789 670 1086
1095 99 141 244 378 299 487 32 63 38 70 102 102 196 99 509 304 712 466 1047
835 1660 2066 1697 3410 20 721 -138 1442 -461 2096 -659 1338 -1936 2263
-3411 2469 -260 37 -629 53 -885 38z m670 -1018 c666 -84 1258 -332 1775 -742
141 -112 436 -407 548 -548 411 -518 654 -1100 744 -1780 20 -159 24 -617 5
-770 -77 -632 -280 -1167 -629 -1660 -83 -117 -260 -330 -328 -395 l-47 -45 6
70 c25 285 17 655 -20 950 -124 998 -571 1912 -1284 2625 -497 497 -1071 853
-1755 1088 -464 160 -1026 244 -1535 229 -118 -4 -246 -10 -285 -13 l-70 -7
45 48 c68 71 281 247 405 334 496 349 1070 564 1650 621 61 5 128 12 150 14
89 9 507 -4 625 -19z m-2000 -2000 c666 -84 1258 -332 1775 -742 141 -112 436
-407 548 -548 772 -973 974 -2250 543 -3420 -49 -131 -189 -419 -273 -559
-127 -212 -295 -434 -450 -594 l-74 -77 5 75 c63 854 -85 1640 -448 2376 -223
452 -496 834 -856 1194 -499 499 -1069 852 -1755 1088 -545 188 -1178 263
-1815 216 l-75 -5 90 87 c218 213 528 426 840 579 363 178 779 297 1170 335
61 5 128 12 150 14 89 9 507 -4 625 -19z m-2000 -2000 c666 -84 1258 -332
1775 -742 141 -112 436 -407 548 -548 358 -451 605 -991 706 -1540 45 -242 55
-360 55 -645 0 -285 -10 -403 -55 -645 -101 -549 -348 -1089 -706 -1540 -112
-141 -407 -436 -548 -548 -518 -411 -1099 -654 -1780 -744 -182 -24 -628 -24
-810 0 -681 90 -1262 333 -1780 744 -141 112 -436 407 -548 548 -411 518 -654
1099 -744 1780 -24 182 -24 628 0 810 90 681 333 1262 744 1780 112 141 407
436 548 548 565 448 1218 702 1960 761 107 8 516 -3 635 -19z"/>
</g>
</svg>
