<svg id="Layer_1" data-name="Layer 1" xmlns="http://www.w3.org/2000/svg" viewBox="0 0 45.08 49.04"><defs><style>.cls-1{fill:none;stroke:#201e1e;stroke-linecap:round;stroke-linejoin:round;stroke-width:2px;}</style></defs><g id="Layer_1-2" data-name="Layer_1"><path class="cls-1" d="M31.08,38A15.54,15.54,0,1,1,7.13,20.16a15.55,15.55,0,0,0,24,17.9Z" transform="translate(-0.01 -0.01)"/><path class="cls-1" d="M36.63,29.81a15.55,15.55,0,1,1-23.09-17.4,15.54,15.54,0,0,0,15,19.67,15.3,15.3,0,0,0,8.08-2.27Z" transform="translate(-0.01 -0.01)"/><path class="cls-1" d="M28.55,1A15.55,15.55,0,1,1,13,16.55,15.54,15.54,0,0,1,28.55,1Z" transform="translate(-0.01 -0.01)"/></g></svg>