<svg id="undraw_address_re_yaoj" xmlns="http://www.w3.org/2000/svg" width="227.287" height="163.698" viewBox="0 0 227.287 163.698">
  <path id="Path_133" data-name="Path 133" d="M613.516,701.162a19.579,19.579,0,0,1-.915,5.413c-.012.041-.026.081-.039.121h-3.414c0-.036.007-.077.011-.121.228-2.617-1.073-18.352-2.642-21.075C606.655,685.721,613.781,692.849,613.516,701.162Z" transform="translate(-491.21 -543.509)" fill="#f1f1f1"/>
  <path id="Path_134" data-name="Path 134" d="M625.194,734.346c-.029.041-.058.081-.089.121h-2.561l.068-.121c.423-.763,1.675-3.046,2.837-5.413,1.248-2.543,2.395-5.183,2.3-6.138C627.778,723.011,628.642,729.579,625.194,734.346Z" transform="translate(-503.143 -571.28)" fill="#f1f1f1"/>
  <path id="Path_133-2" data-name="Path 133" d="M977.591,723.879a12.973,12.973,0,0,1-.606,3.587c-.008.027-.017.053-.026.08H974.7c0-.024,0-.051.007-.08.151-1.734-.711-12.161-1.75-13.965C973.045,713.646,977.767,718.37,977.591,723.879Z" transform="translate(-764.066 -564.359)" fill="#f1f1f1"/>
  <path id="Path_134-2" data-name="Path 134" d="M985.33,745.868c-.019.027-.039.054-.059.081h-1.7l.045-.081c.28-.506,1.11-2.018,1.88-3.587.827-1.685,1.587-3.434,1.523-4.067C987.042,738.356,987.615,742.709,985.33,745.868Z" transform="translate(-771.974 -582.761)" fill="#f1f1f1"/>
  <path id="Path_133-3" data-name="Path 133" d="M550.592,723.879a12.976,12.976,0,0,1-.606,3.587c-.008.027-.017.053-.026.08H547.7c0-.024,0-.051.007-.08.151-1.734-.711-12.161-1.75-13.965C546.045,713.646,550.767,718.37,550.592,723.879Z" transform="translate(-446.113 -564.359)" fill="#f1f1f1"/>
  <path id="Path_134-3" data-name="Path 134" d="M558.33,745.868c-.019.027-.039.054-.059.081h-1.7l.045-.081c.28-.506,1.11-2.018,1.88-3.587.827-1.685,1.587-3.434,1.523-4.067C560.042,738.356,560.615,742.709,558.33,745.868Z" transform="translate(-454.021 -582.761)" fill="#f1f1f1"/>
  <path id="Path_568" data-name="Path 568" d="M299.569,129.5l-25.346,41.744,73.267,44.487,25.347-41.744Z" transform="translate(-243.775 -129.5)" fill="#fff"/>
  <path id="Path_569" data-name="Path 569" d="M299.569,129.5l-25.346,41.744,73.267,44.487,25.347-41.744Zm47.444,84.284-70.844-43.016,23.876-39.322,70.844,43.016Z" transform="translate(-243.775 -129.5)" fill="#e5e5e5"/>
  <rect id="Rectangle_1156" data-name="Rectangle 1156" width="1.417" height="84.062" transform="matrix(0.519, -0.855, 0.855, 0.519, 47.305, 15.344)" fill="#e5e5e5"/>
  <rect id="Rectangle_1157" data-name="Rectangle 1157" width="1.417" height="84.062" transform="matrix(0.519, -0.855, 0.855, 0.519, 37.223, 31.949)" fill="#e5e5e5"/>
  <rect id="Rectangle_1158" data-name="Rectangle 1158" width="48.836" height="1.417" transform="matrix(0.519, -0.855, 0.855, 0.519, 50.429, 53.876)" fill="#e5e5e5"/>
  <path id="Path_570" data-name="Path 570" d="M377.994,141.822l-25.346,41.744-1.261-.652,25.4-41.827Z" transform="translate(-261.649 -105.056)" fill="#e5e5e5"/>
  <path id="Path_571" data-name="Path 571" d="M283.738,96.762l-.565-.343-1.261-.652-.047-.142-.69-2.076-5.1-15.349-.69-2.076-8.77-26.394-.69-2.076-2.479-7.464-.586-1.765-4.086-12.3-.69-2.076,1.873,1.137.69,2.076,3.179,9.569.586,1.765L267.8,48.791l.69,2.076,8.77,26.394.69,2.076,4.931,14.837.17.512.416,1.253Z" transform="translate(-192.176 -17.91)" fill="#e5e5e5"/>
  <path id="Path_572" data-name="Path 572" d="M315.625,295.361h-.706V276.018a11.2,11.2,0,0,0-11.195-11.195h-40.98a11.2,11.2,0,0,0-11.195,11.195V382.133a11.2,11.2,0,0,0,11.195,11.195h40.979a11.2,11.2,0,0,0,11.195-11.195v-73h.706Z" transform="translate(-226.893 -230.265)" fill="#3f3d56"/>
  <path id="Path_573" data-name="Path 573" d="M313.182,276.229h-5.349a3.972,3.972,0,0,1-3.677,5.472H280.679A3.972,3.972,0,0,1,277,276.229h-5a8.36,8.36,0,0,0-8.36,8.36V390.547a8.36,8.36,0,0,0,8.36,8.36h41.177a8.36,8.36,0,0,0,8.36-8.36h0V284.589a8.36,8.36,0,0,0-8.36-8.36Z" transform="translate(-235.899 -238.757)" fill="#fff"/>
  <rect id="Rectangle_1159" data-name="Rectangle 1159" width="17.644" height="4.258" transform="translate(47.872 67.156)" fill="#3a5897"/>
  <rect id="Rectangle_1160" data-name="Rectangle 1160" width="19.324" height="4.258" transform="translate(47.032 85.451)" fill="#e5e5e5"/>
  <rect id="Rectangle_1161" data-name="Rectangle 1161" width="43.13" height="4.258" transform="translate(35.129 94.597)" fill="#e5e5e5"/>
  <rect id="Rectangle_1162" data-name="Rectangle 1162" width="43.13" height="4.258" transform="translate(35.129 103.743)" fill="#e5e5e5"/>
  <rect id="Rectangle_1163" data-name="Rectangle 1163" width="17.644" height="6.451" transform="translate(47.872 124.014)" fill="#3a5897"/>
  <circle id="Ellipse_100" data-name="Ellipse 100" cx="1.952" cy="1.952" r="1.952" transform="translate(93.482 31.096)" fill="#3a5897"/>
  <path id="Path_574" data-name="Path 574" d="M710.37,546.843a2.369,2.369,0,0,0,.779-3.548l2.689-4.7-2.457-2.331-3.7,6.688a2.382,2.382,0,0,0,2.693,3.889Z" transform="translate(-565.936 -432.386)" fill="#ffb7b7"/>
  <path id="Path_575" data-name="Path 575" d="M610.086,588.158h-3.413l-1.624-13.163h5.037Z" transform="translate(-450.533 -428.153)" fill="#ffb7b7"/>
  <path id="Path_576" data-name="Path 576" d="M751.094,756.1h-11v-.139a4.283,4.283,0,0,1,4.283-4.283h6.721Z" transform="translate(-590.67 -592.784)" fill="#2f2e41"/>
  <path id="Path_577" data-name="Path 577" d="M706.569,575.514l-3.01,1.609-7.638-10.842,4.442-2.375Z" transform="translate(-518.198 -419.896)" fill="#ffb7b7"/>
  <path id="Path_578" data-name="Path 578" d="M871.766,737.3l-9.7,5.188L862,742.37a4.283,4.283,0,0,1,1.758-5.8h0l5.927-3.169Z" transform="translate(-681.067 -579.181)" fill="#2f2e41"/>
  <path id="Path_579" data-name="Path 579" d="M769.285,552.925l.764,15.773s1.763.662,1.146,3.22c0,0-.865,2.947,1.091,2.947s9.614,18.211,9.614,18.211l-5,2.536-13.145-19.083-3.737-12.744-2,14.479-.133,22.353-6.539-.734-1.868-25.823-.867-19.684Z" transform="translate(-597.011 -444.791)" fill="#2f2e41"/>
  <path id="Path_580" data-name="Path 580" d="M585.464,329.519l1.611-11.692,5.582-27.331,10.609.6,5.065,9.769-.88,19.056,2.026,7.523Z" transform="translate(-435.949 -216.309)" fill="#3a5897"/>
  <path id="Path_581" data-name="Path 581" d="M726.487,442.489l-6.372,12.13-1,2.38-2.917-3.455,4-14.13s3.618-17.52,9.371-19.3l1.391.227Z" transform="translate(-572.881 -345.895)" fill="#3a5897"/>
  <path id="Path_582" data-name="Path 582" d="M806.728,534.03a2.369,2.369,0,0,0,1.307-3.389l3.371-4.236-2.075-2.676-4.676,6.049a2.382,2.382,0,0,0,2.073,4.252Z" transform="translate(-637.933 -423.051)" fill="#ffb7b7"/>
  <path id="Path_583" data-name="Path 583" d="M802.432,423.869l1.881-1.8s2.209.822,3.8,5.067,6.767,15.738,6.767,15.738l-5.067,10.287-3.416-2.265,1.843-9.059Z" transform="translate(-637.092 -347.35)" fill="#3a5897"/>
  <circle id="Ellipse_101" data-name="Ellipse 101" cx="5.622" cy="5.622" r="5.622" transform="translate(155.385 61.753)" fill="#ffb7b7"/>
  <path id="Path_584" data-name="Path 584" d="M773.029,366.622l.273-.549-1.371-.681a4.019,4.019,0,0,0-4.25-1.77c-2.737.692-3.969,1.106-3.969,1.106l-1.368.688.687.683-1.232.414.823.409-.957.55.515,2.821s.856-2.139,2.5-1.322,4.656-.423,4.656-.423l2.615,5.061s.539-1.774,1.5-1.3C773.452,372.309,775.91,368.4,773.029,366.622Z" transform="translate(-606.734 -303.742)" fill="#2f2e41"/>
  <path id="Path_585" data-name="Path 585" d="M382.032,769.011H155.255a.255.255,0,0,1,0-.511H382.032a.255.255,0,0,1,0,.511Z" transform="translate(-155 -605.313)" fill="#cbcbcb"/>
</svg>
