<svg id="svgexport-6_24_" data-name="svgexport-6 (24)" xmlns="http://www.w3.org/2000/svg" width="19.448" height="19.448" viewBox="0 0 19.448 19.448">
  <g id="Group_449" data-name="Group 449">
    <g id="Group_448" data-name="Group 448">
      <g id="Group_447" data-name="Group 447">
        <path id="Path_641" data-name="Path 641" d="M7.187,0H1.268A1.27,1.27,0,0,0,0,1.268V7.187A1.27,1.27,0,0,0,1.268,8.456H7.187A1.27,1.27,0,0,0,8.456,7.187V1.268A1.27,1.27,0,0,0,7.187,0ZM7.61,7.187a.423.423,0,0,1-.423.423H1.268a.423.423,0,0,1-.423-.423V1.268A.423.423,0,0,1,1.268.846H7.187a.423.423,0,0,1,.423.423V7.187Z" fill="#3a5897"/>
        <path id="Path_642" data-name="Path 642" d="M296.579,0H290.66a1.27,1.27,0,0,0-1.268,1.268V7.187a1.27,1.27,0,0,0,1.268,1.268h5.919a1.27,1.27,0,0,0,1.268-1.268V1.268A1.27,1.27,0,0,0,296.579,0ZM297,7.187a.423.423,0,0,1-.423.423H290.66a.423.423,0,0,1-.423-.423V1.268a.423.423,0,0,1,.423-.423h5.919a.423.423,0,0,1,.423.423Z" transform="translate(-278.4)" fill="#3a5897"/>
        <path id="Path_643" data-name="Path 643" d="M7.187,289.391H1.268A1.269,1.269,0,0,0,0,290.659v5.919a1.27,1.27,0,0,0,1.268,1.268H7.187a1.27,1.27,0,0,0,1.268-1.268v-5.919A1.27,1.27,0,0,0,7.187,289.391Zm.423,7.187a.423.423,0,0,1-.423.423H1.268a.423.423,0,0,1-.423-.423v-5.919a.423.423,0,0,1,.422-.423H7.187a.423.423,0,0,1,.423.423v5.919Z" transform="translate(0 -278.399)" fill="#3a5897"/>
        <path id="Path_644" data-name="Path 644" d="M296.579,289.391H290.66a1.27,1.27,0,0,0-1.268,1.268v5.919a1.27,1.27,0,0,0,1.268,1.268h5.919a1.27,1.27,0,0,0,1.268-1.268v-5.919A1.27,1.27,0,0,0,296.579,289.391Zm.423,7.187a.423.423,0,0,1-.423.423H290.66a.423.423,0,0,1-.423-.423v-5.919a.423.423,0,0,1,.423-.423h5.919a.423.423,0,0,1,.423.423Z" transform="translate(-278.4 -278.399)" fill="#3a5897"/>
      </g>
    </g>
  </g>
</svg>
