<svg id="svgexport-6_18_" data-name="svgexport-6 (18)" xmlns="http://www.w3.org/2000/svg" width="19" height="19" viewBox="0 0 19 19">
  <circle id="Ellipse_102" data-name="Ellipse 102" cx="9.5" cy="9.5" r="9.5" fill="#2196f3"/>
  <path id="Path_591" data-name="Path 591" d="M122.1,119.309a6.557,6.557,0,0,1-2.9-.664.595.595,0,0,0-.8.276l-.428.885a8.363,8.363,0,0,1-3.085-3.085l.886-.428a.595.595,0,0,0,.276-.8,6.534,6.534,0,0,1-.665-2.9.594.594,0,0,0-.594-.594h-2.193a.594.594,0,0,0-.594.594,10.107,10.107,0,0,0,10.1,10.1.594.594,0,0,0,.594-.594V119.9A.594.594,0,0,0,122.1,119.309Z" transform="translate(-107.843 -107.843)" fill="#fafafa"/>
</svg>
