<svg xmlns="http://www.w3.org/2000/svg" width="19.126" height="21.835" viewBox="0 0 19.126 21.835">
  <g id="svgexport-6_55_" data-name="svgexport-6 (55)" transform="translate(-31.751)">
    <g id="Group_193" data-name="Group 193" transform="translate(37.477 15.623)">
      <g id="Group_192" data-name="Group 192" transform="translate(0)">
        <path id="Path_250" data-name="Path 250" d="M166.759,366.475a.426.426,0,1,0,.125.3A.429.429,0,0,0,166.759,366.475Z" transform="translate(-166.031 -366.35)" fill="#3a5897"/>
      </g>
    </g>
    <g id="Group_195" data-name="Group 195" transform="translate(31.751 4.482)">
      <g id="Group_194" data-name="Group 194" transform="translate(0)">
        <path id="Path_251" data-name="Path 251" d="M50.877,115.465a1.733,1.733,0,0,0-.6-1.311,1.736,1.736,0,0,0-1.138-3.048H44.488l1.193-3.331a2.006,2.006,0,0,0-1.305-2.6,2.011,2.011,0,0,0-2.46,1.209l-.394,1.04a8.437,8.437,0,0,1-3.471,4.2,1.335,1.335,0,0,0-1.057-.52H32.177a.426.426,0,0,0-.426.426V122.02a.426.426,0,0,0,.426.426h4.816a1.337,1.337,0,0,0,1.144-.646l.55.216a6.214,6.214,0,0,0,2.278.431H49.14a1.736,1.736,0,0,0,1.138-3.048,1.734,1.734,0,0,0,0-2.622A1.733,1.733,0,0,0,50.877,115.465Zm-5.039-.885h3.3a.884.884,0,1,1,0,1.769h-3.3a.426.426,0,1,0,0,.853h3.3a.884.884,0,1,1,0,1.769h-3.3a.426.426,0,0,0,0,.853h3.3a.884.884,0,1,1,0,1.769H40.965A5.364,5.364,0,0,1,39,121.221l-.669-.262v-2.593a.426.426,0,1,0-.853,0v2.743a.484.484,0,0,1-.484.484H32.6v-9.634h4.39a.485.485,0,0,1,.459.331.422.422,0,0,0,.018.071.482.482,0,0,1,.008.082v2.412a.426.426,0,1,0,.853,0v-2.4a9.29,9.29,0,0,0,3.989-4.722l.394-1.04A1.156,1.156,0,0,1,44.128,106a1.153,1.153,0,0,1,.75,1.492l-1.4,3.9a.426.426,0,0,0,.4.57H49.14a.884.884,0,1,1,0,1.769h-3.3a.426.426,0,0,0,0,.853Z" transform="translate(-31.751 -105.093)" fill="#3a5897"/>
      </g>
    </g>
    <g id="Group_197" data-name="Group 197" transform="translate(43.416)">
      <g id="Group_196" data-name="Group 196" transform="translate(0)">
        <path id="Path_252" data-name="Path 252" d="M305.706,0a.426.426,0,0,0-.426.426V2.478a.426.426,0,0,0,.853,0V.426A.426.426,0,0,0,305.706,0Z" transform="translate(-305.28)" fill="#3a5897"/>
      </g>
    </g>
    <g id="Group_199" data-name="Group 199" transform="translate(45.883 2.162)">
      <g id="Group_198" data-name="Group 198">
        <path id="Path_253" data-name="Path 253" d="M364.694,50.828a.427.427,0,0,0-.6,0l-.837.837a.426.426,0,1,0,.6.6l.837-.837A.426.426,0,0,0,364.694,50.828Z" transform="translate(-363.129 -50.703)" fill="#3a5897"/>
      </g>
    </g>
    <g id="Group_201" data-name="Group 201" transform="translate(40.112 2.162)">
      <g id="Group_200" data-name="Group 200">
        <path id="Path_254" data-name="Path 254" d="M229.365,51.665l-.837-.837a.426.426,0,0,0-.6.6l.837.837a.426.426,0,0,0,.6-.6Z" transform="translate(-227.8 -50.703)" fill="#3a5897"/>
      </g>
    </g>
    <g id="Group_203" data-name="Group 203" transform="translate(34.53 18.672)">
      <g id="Group_202" data-name="Group 202" transform="translate(0)">
        <path id="Path_255" data-name="Path 255" d="M97.345,437.844a.426.426,0,0,0-.426.426v.007a.426.426,0,1,0,.853,0v-.007A.426.426,0,0,0,97.345,437.844Z" transform="translate(-96.919 -437.844)" fill="#3a5897"/>
      </g>
    </g>
  </g>
</svg>
