<svg xmlns="http://www.w3.org/2000/svg" width="19.127" height="19.126" viewBox="0 0 19.127 19.126">
  <g id="svgexport-6_54_" data-name="svgexport-6 (54)" transform="translate(0.001 0)">
    <g id="XMLID_1348_" transform="translate(-0.001 0)">
      <g id="XMLID_1737_" transform="translate(15.685 2.695)">
        <g id="XMLID_1738_">
          <path id="XMLID_919_" d="M420.323,72.89a.374.374,0,1,1,.264-.109A.376.376,0,0,1,420.323,72.89Z" transform="translate(-419.949 -72.143)" fill="#3a5897"/>
        </g>
      </g>
      <g id="XMLID_1551_" transform="translate(0 0)">
        <path id="XMLID_918_" d="M9.562,19.127a9.556,9.556,0,0,1-5.536-1.763l-2.468.661a.373.373,0,0,1-.457-.457L1.762,15.1A9.563,9.563,0,0,1,14.978,1.685a.374.374,0,0,1-.424.615A8.816,8.816,0,0,0,2.469,14.8a.374.374,0,0,1,.061.319l-.54,2.015L4,16.6a.374.374,0,0,1,.319.061,8.816,8.816,0,0,0,12.5-12.085.374.374,0,0,1,.615-.424A9.563,9.563,0,0,1,10.232,19.1q-.335.023-.67.023Z" transform="translate(0.001 0)" fill="#3a5897"/>
      </g>
      <g id="XMLID_1295_" transform="translate(5.88 3.427)">
        <g id="XMLID_2108_">
          <g id="XMLID_2110_">
            <path id="XMLID_915_" d="M161.061,100.827a1.176,1.176,0,0,1-1.178-1.174,3.239,3.239,0,0,1,1.8-2.9,1.4,1.4,0,0,0,.766-1.312,1.474,1.474,0,0,0-1.323-1.323,1.4,1.4,0,0,0-1.386.941,1.188,1.188,0,0,1-1.107.813h-.012a1.184,1.184,0,0,1-.953-.483,1.151,1.151,0,0,1-.169-1.049,3.745,3.745,0,1,1,5.241,4.513.9.9,0,0,0-.506.8A1.176,1.176,0,0,1,161.061,100.827Zm0-7.461.1,0A2.207,2.207,0,0,1,163.2,95.4a2.146,2.146,0,0,1-1.177,2.014,2.5,2.5,0,0,0-1.389,2.236.429.429,0,0,0,.858,0,1.642,1.642,0,0,1,.917-1.469,3,3,0,0,0,1.648-2.819,3,3,0,0,0-5.843-.795.412.412,0,0,0,.061.375.43.43,0,0,0,.35.178h0a.441.441,0,0,0,.407-.306,2.144,2.144,0,0,1,.549-.858A2.12,2.12,0,0,1,161.058,93.366Z" transform="translate(-157.441 -91.761)" fill="#3a5897"/>
          </g>
        </g>
        <g id="XMLID_2161_" transform="translate(2.442 9.924)">
          <path id="XMLID_912_" d="M224,359.809a1.176,1.176,0,1,1,1.176-1.176A1.177,1.177,0,0,1,224,359.809Zm0-1.6a.429.429,0,1,0,.429.429A.429.429,0,0,0,224,358.2Z" transform="translate(-222.821 -357.457)" fill="#3a5897"/>
        </g>
      </g>
    </g>
  </g>
</svg>
