<svg id="svgexport-6_19_" data-name="svgexport-6 (19)" xmlns="http://www.w3.org/2000/svg" width="18.947" height="18.947" viewBox="0 0 18.947 18.947">
  <g id="Group_428" data-name="Group 428" transform="translate(0 0)">
    <g id="Group_425" data-name="Group 425">
      <path id="Path_592" data-name="Path 592" d="M18.392,18.947H.555A.555.555,0,0,1,0,18.392V7.957a.555.555,0,0,1,.2-.427L9.119.128a.555.555,0,0,1,.709,0l8.918,7.4a.555.555,0,0,1,.2.427V18.392A.555.555,0,0,1,18.392,18.947Z" transform="translate(0 0)" fill="#ffcd14"/>
      <path id="Path_593" data-name="Path 593" d="M265.273,7.529l-8.918-7.4A.554.554,0,0,0,256,0V18.947h8.918a.555.555,0,0,0,.555-.555V7.956A.555.555,0,0,0,265.273,7.529Z" transform="translate(-246.526 0)" fill="#ffb400"/>
    </g>
    <path id="Path_594" data-name="Path 594" d="M84.137,71.842H71.555A.555.555,0,0,1,71,71.287V60.555A.555.555,0,0,1,71.555,60H84.137a.555.555,0,0,1,.555.555V71.287A.555.555,0,0,1,84.137,71.842Z" transform="translate(-68.373 -57.78)" fill="#dcf5fa"/>
    <path id="Path_595" data-name="Path 595" d="M262.291,60H256V71.842h6.291a.555.555,0,0,0,.555-.555V60.555A.555.555,0,0,0,262.291,60Z" transform="translate(-246.526 -57.78)" fill="#bedce6"/>
    <g id="Group_427" data-name="Group 427" transform="translate(5.98 4.255)">
      <path id="Path_596" data-name="Path 596" d="M168.474,117.485l0-.012a3.515,3.515,0,1,0-5.528,3.787,3.544,3.544,0,0,0,2.065.743h.01a.37.37,0,0,0,.01-.74,2.776,2.776,0,0,1-.766-5.419,2.775,2.775,0,0,1,3.5,1.837,2.428,2.428,0,0,1-.151,1.615.819.819,0,0,1-.752.558.284.284,0,0,1-.193-.09.453.453,0,0,1-.126-.316l0-.927c0-.025,0-.051,0-.076s0-.032,0-.048l.008-1.708a.37.37,0,0,0-.368-.372h0a.37.37,0,0,0-.37.368v.128a1.441,1.441,0,0,0-.853-.272,1.788,1.788,0,0,0-1.686,1.914,1.841,1.841,0,0,0,1.653,1.981,1.442,1.442,0,0,0,1.012-.426,1.16,1.16,0,0,0,.2.277,1.011,1.011,0,0,0,.718.308,1.555,1.555,0,0,0,1.44-1.025A3.151,3.151,0,0,0,168.474,117.485Zm-3.549,2.211c-.439,0-.913-.474-.913-1.241a1.062,1.062,0,0,1,.946-1.174c.484,0,.827.453.845,1.109v.127C165.777,119.173,165.393,119.7,164.925,119.7Z" transform="translate(-161.59 -114.972)" fill="#696969"/>
      <g id="Group_426" data-name="Group 426" transform="translate(3.494 0)">
        <path id="Path_597" data-name="Path 597" d="M256.3,285.544a.37.37,0,0,0-.3-.374v.728A.37.37,0,0,0,256.3,285.544Z" transform="translate(-256 -278.872)" fill="#555"/>
        <path id="Path_598" data-name="Path 598" d="M259.386,117.478a3.521,3.521,0,0,0-3.387-2.5v.741a2.779,2.779,0,0,1,2.677,1.969,2.429,2.429,0,0,1-.151,1.615.819.819,0,0,1-.752.558.284.284,0,0,1-.193-.09.453.453,0,0,1-.126-.316l0-.927c0-.025,0-.051,0-.076s0-.032,0-.048l.008-1.708a.37.37,0,0,0-.368-.372h0a.37.37,0,0,0-.37.368v.128a1.433,1.433,0,0,0-.728-.267v.746c.417.071.7.5.72,1.1v.127a1.188,1.188,0,0,1-.719,1.159v.751a1.461,1.461,0,0,0,.853-.417,1.16,1.16,0,0,0,.2.277,1.011,1.011,0,0,0,.718.308,1.555,1.555,0,0,0,1.44-1.024,3.151,3.151,0,0,0,.177-2.085Z" transform="translate(-255.999 -114.976)" fill="#555"/>
      </g>
    </g>
    <path id="Path_599" data-name="Path 599" d="M18.392,211.546H.555A.555.555,0,0,1,0,210.991V200.555a.555.555,0,0,1,.848-.471l8.625,5.368,8.625-5.368a.555.555,0,0,1,.848.471v10.436A.555.555,0,0,1,18.392,211.546Z" transform="translate(0 -192.599)" fill="#fff037"/>
    <path id="Path_600" data-name="Path 600" d="M265.188,200.07a.555.555,0,0,0-.563.014L256,205.452v6.094h8.918a.555.555,0,0,0,.555-.555V200.555A.555.555,0,0,0,265.188,200.07Z" transform="translate(-246.526 -192.599)" fill="#ffcd14"/>
  </g>
</svg>
