<svg id="svgexport-6_23_" data-name="svgexport-6 (23)" xmlns="http://www.w3.org/2000/svg" width="19.265" height="19.265" viewBox="0 0 19.265 19.265">
  <g id="Group_444" data-name="Group 444">
    <g id="Group_441" data-name="Group 441">
      <path id="Path_638" data-name="Path 638" d="M9.633,18.3A8.669,8.669,0,1,0,.963,9.633,8.669,8.669,0,0,0,9.633,18.3Zm0,.963A9.633,9.633,0,1,0,0,9.633,9.633,9.633,0,0,0,9.633,19.265Z" fill="#3a5897" fill-rule="evenodd"/>
    </g>
    <g id="Group_442" data-name="Group 442" transform="translate(5.78 9.151)">
      <path id="Path_639" data-name="Path 639" d="M64.563,90.506a.482.482,0,0,1-.482.482H57.339a.482.482,0,0,1,0-.963h6.743A.482.482,0,0,1,64.563,90.506Z" transform="translate(-56.857 -90.024)" fill="#3a5897" fill-rule="evenodd"/>
    </g>
    <g id="Group_443" data-name="Group 443" transform="translate(9.151 5.78)">
      <path id="Path_640" data-name="Path 640" d="M90.506,64.563a.482.482,0,0,1-.482-.482V57.339a.482.482,0,0,1,.963,0v6.743A.482.482,0,0,1,90.506,64.563Z" transform="translate(-90.024 -56.857)" fill="#3a5897" fill-rule="evenodd"/>
    </g>
  </g>
</svg>
