<svg id="undraw_Questions_re_1fy7" xmlns="http://www.w3.org/2000/svg" width="208.495" height="146.931" viewBox="0 0 208.495 146.931">
  <circle id="Ellipse_55" data-name="Ellipse 55" cx="11.354" cy="11.354" r="11.354" transform="translate(95.128 123.911)" fill="#6c63ff"/>
  <path id="Path_333" data-name="Path 333" d="M445.109,333.672c6.352-1.908,13.105-3.9,18.143-8.432,4.5-4.053,7.541-10.241,5.676-16.319s-7.436-10.109-13.191-12.121a54.114,54.114,0,0,0-10.093-2.271c-3.711-.541-7.439-.983-11.164-1.41q-22.629-2.588-45.428-3.162c-7.5-.189-15-.184-22.5-.075-6.7.1-13.754.095-19.969-2.752-4.833-2.214-9.219-6.242-10.565-11.535-1.554-6.11,1.313-12.333,5.425-16.758a43.926,43.926,0,0,1,7.315-6.1c2.835-1.958,5.77-3.778,8.768-5.477a122.094,122.094,0,0,1,18.455-8.508c3.146-1.144,6.339-2.131,9.559-3.041a81.793,81.793,0,0,0,8.075-2.586c5.081-2.025,9.913-5.455,11.2-11.078,1.224-5.329-.84-11.115-4.459-15.074-4.187-4.581-10.5-6.588-16.553-6.913-6.795-.365-13.433,1.336-19.82,3.494-6.812,2.3-13.477,4.949-20.433,6.813a137.478,137.478,0,0,1-21.029,3.909,57.046,57.046,0,0,1-10.554.5,12.761,12.761,0,0,1-8.006-3.179,7.918,7.918,0,0,1-2.576-6.821c.069-.47.783-.27.714.2-.462,3.148,1.678,6.05,4.316,7.536,3.048,1.718,6.757,1.72,10.15,1.523a132.755,132.755,0,0,0,21.848-3.158A175.587,175.587,0,0,0,359.08,204.5c6.456-2.338,13.057-4.62,19.954-5.126,5.985-.439,12.28.433,17.494,3.56a19.353,19.353,0,0,1,9.025,12.593,14.6,14.6,0,0,1-4.295,13.9c-4.029,3.714-9.553,5.3-14.7,6.764a134.683,134.683,0,0,0-19.1,6.838,119.92,119.92,0,0,0-17.97,10.1c-5.491,3.752-10.91,8.474-12.647,15.168a13.973,13.973,0,0,0,.694,9.371,17.125,17.125,0,0,0,5.495,6.521c5.51,4.054,12.453,4.886,19.108,4.969,7.474.093,14.949-.159,22.426-.036q22.857.375,45.62,2.782,5.7.6,11.393,1.335a103.028,103.028,0,0,1,10.189,1.652c5.964,1.384,11.768,4.046,15.474,9.1a14.394,14.394,0,0,1,1.226,15.74c-2.847,5.6-8.178,9.163-13.841,11.5a98.2,98.2,0,0,1-9.318,3.146.371.371,0,0,1-.2-.714Z" transform="translate(-270.794 -187.69)" fill="#f2f2f2"/>
  <circle id="Ellipse_56" data-name="Ellipse 56" cx="5.924" cy="5.924" r="5.924" transform="translate(25.151 11.231)" fill="#f2f2f2"/>
  <circle id="Ellipse_57" data-name="Ellipse 57" cx="5.924" cy="5.924" r="5.924" transform="translate(66.249 22.462)" fill="#f2f2f2"/>
  <circle id="Ellipse_58" data-name="Ellipse 58" cx="5.924" cy="5.924" r="5.924" transform="translate(101.052)" fill="#f2f2f2"/>
  <circle id="Ellipse_59" data-name="Ellipse 59" cx="5.924" cy="5.924" r="5.924" transform="translate(122.774 25.177)" fill="#f2f2f2"/>
  <circle id="Ellipse_60" data-name="Ellipse 60" cx="5.924" cy="5.924" r="5.924" transform="translate(93.4 54.304)" fill="#f2f2f2"/>
  <circle id="Ellipse_61" data-name="Ellipse 61" cx="5.924" cy="5.924" r="5.924" transform="translate(56.128 68.373)" fill="#f2f2f2"/>
  <circle id="Ellipse_62" data-name="Ellipse 62" cx="5.924" cy="5.924" r="5.924" transform="translate(95.622 90.341)" fill="#f2f2f2"/>
  <circle id="Ellipse_63" data-name="Ellipse 63" cx="5.924" cy="5.924" r="5.924" transform="translate(138.077 102.683)" fill="#f2f2f2"/>
  <circle id="Ellipse_64" data-name="Ellipse 64" cx="5.924" cy="5.924" r="5.924" transform="translate(187.691 99.968)" fill="#f2f2f2"/>
  <path id="Path_334" data-name="Path 334" d="M504.868,220.37a32.858,32.858,0,0,0-32.527,32.29c0,.164,0,1.316,0,2.822a8.33,8.33,0,0,0,8.329,8.33h0A8.335,8.335,0,0,0,489,255.472c0-1.027,0-1.736,0-1.78a15.8,15.8,0,1,1,24.318,13.3l0,0s-11.855,7.632-15.469,18.1h0a23.2,23.2,0,0,0-.956,6.607c0,.92.054,8.965.159,15.5a8.587,8.587,0,0,0,8.587,8.447h0a8.589,8.589,0,0,0,8.588-8.642c-.036-5.981-.056-12.944-.056-13.45,0-6.429,6.2-12.834,11.3-17.011a34.262,34.262,0,0,0,11.783-18.759,21.417,21.417,0,0,0,.617-4.649,32.767,32.767,0,0,0-33-32.766Z" transform="translate(-399.602 -203.585)" fill="#6c63ff"/>
  <path id="Path_335" data-name="Path 335" d="M385.864,745.837H177.956a.294.294,0,0,1,0-.588H385.863a.294.294,0,1,1,0,.588Z" transform="translate(-177.662 -598.906)" fill="#3f3d56"/>
  <circle id="Ellipse_65" data-name="Ellipse 65" cx="7.405" cy="7.405" r="7.405" transform="translate(147.718 52.575)" fill="#2f2e41"/>
  <path id="Path_336" data-name="Path 336" d="M559.386,546.513H556.36l-1.44-11.672h4.466Z" transform="translate(-417.947 -402.824)" fill="#a0616a"/>
  <path id="Path_337" data-name="Path 337" d="M540.784,578.626h5.836V582.3h-9.511A3.675,3.675,0,0,1,540.784,578.626Z" transform="translate(-404.532 -435.801)" fill="#2f2e41"/>
  <path id="Path_338" data-name="Path 338" d="M654.386,546.513H651.36l-1.44-11.672h4.466Z" transform="translate(-489.497 -402.824)" fill="#a0616a"/>
  <path id="Path_339" data-name="Path 339" d="M635.784,578.626h5.836V582.3h-9.511A3.675,3.675,0,0,1,635.784,578.626Z" transform="translate(-476.083 -435.801)" fill="#2f2e41"/>
  <circle id="Ellipse_66" data-name="Ellipse 66" cx="6.063" cy="6.063" r="6.063" transform="translate(147.935 55.303)" fill="#a0616a"/>
  <path id="Path_340" data-name="Path 340" d="M750.052,451.986l2.713-6.233a7.746,7.746,0,0,0-1.715-8.787,7.88,7.88,0,0,0-.758-.659,7.636,7.636,0,0,0-4.687-1.622,7.943,7.943,0,0,0-3.308.736c-.089.039-.175.081-.264.123-.17.081-.338.17-.5.262a7.819,7.819,0,0,0-3.875,5.894l-1.2,10.031c-.3.787-11.043,29.223-7.286,50.932a1.1,1.1,0,0,0,.943.906l3.809.518a1.11,1.11,0,0,0,1.237-.871l6.391-30.462a.865.865,0,0,1,1.678-.057l9.029,32.034a1.1,1.1,0,0,0,1.064.81,1.256,1.256,0,0,0,.215-.02l4.653-.9a1.1,1.1,0,0,0,.9-1.187C758.4,495.814,754.769,457.621,750.052,451.986Z" transform="translate(-592.441 -365)" fill="#2f2e41"/>
  <path id="Path_341" data-name="Path 341" d="M706.051,414.638a2.482,2.482,0,0,0,2.615,2.765l3.389,8.144,2.563-3.8-3.611-7.151a2.5,2.5,0,0,0-4.956.042Z" transform="translate(-575.614 -348.227)" fill="#a0616a"/>
  <path id="Path_342" data-name="Path 342" d="M791.622,507.52a2.482,2.482,0,0,0,2.08-3.187l7.13-5.193-4.293-1.607-6.113,5.178a2.5,2.5,0,0,0,1.2,4.81Z" transform="translate(-637.96 -412.334)" fill="#a0616a"/>
  <path id="Path_343" data-name="Path 343" d="M726.364,450.539a4.207,4.207,0,0,1-.814-.08,4.025,4.025,0,0,1-2.949-2.374l-4.748-5.789a1.111,1.111,0,0,1,.274-1.649l3.378-2.091a1.111,1.111,0,0,1,1.534.368l3.346,5.513,6.408-4.736a2.4,2.4,0,0,1,2.792,3.841l-6.4,5.834a4.012,4.012,0,0,1-2.825,1.162Z" transform="translate(-584.326 -367.79)" fill="#2f2e41"/>
  <path id="Path_344" data-name="Path 344" d="M810.7,464.769h-.026a1.113,1.113,0,0,1-.817-.388l-3-3.5a1.111,1.111,0,0,1,.227-1.647l5.623-3.749-5.094-6.125a2.4,2.4,0,0,1,3.675-3.007l6.191,6.051a4.079,4.079,0,0,1-.907,6.65l-5.06,5.37A1.113,1.113,0,0,1,810.7,464.769Z" transform="translate(-651.346 -373.314)" fill="#2f2e41"/>
  <path id="Path_345" data-name="Path 345" d="M785.074,441.664a1.143,1.143,0,0,1-.144-.009,1.1,1.1,0,0,1-.916-.758l-2.257-6.919a.761.761,0,0,1,.394-.919l.073-.035c.066-.032.132-.063.2-.093a8.04,8.04,0,0,1,3.358-.746,7.732,7.732,0,0,1,4.236,1.273.773.773,0,0,1,.223,1.06l-4.233,6.632a1.1,1.1,0,0,1-.932.513Z" transform="translate(-632.618 -363.117)" fill="#e6e6e6"/>
  <circle id="Ellipse_67" data-name="Ellipse 67" cx="2.423" cy="2.423" r="2.423" transform="translate(158.538 51.828)" fill="#2f2e41"/>
  <path id="Path_346" data-name="Path 346" d="M776.529,361.365h0a6.418,6.418,0,0,0-6.418,6.418V370.5h3.339l1.6-2.715.479,2.715h10.135l-2.715-2.715A6.418,6.418,0,0,0,776.529,361.365Z" transform="translate(-623.874 -309.778)" fill="#2f2e41"/>
  <path id="Path_347" data-name="Path 347" d="M834.809,357.5a3.739,3.739,0,0,1,4.068-2.566,5.182,5.182,0,0,1,3.493,2.886,28.422,28.422,0,0,1,1.552,4.425,8.015,8.015,0,0,0,2.417,3.945,3.6,3.6,0,0,0,4.342.234,4.966,4.966,0,0,1-9.251,1.773,10.74,10.74,0,0,1-.995-3.764,8.227,8.227,0,0,0-1.2-3.688,3.05,3.05,0,0,0-3.407-1.268Z" transform="translate(-672.603 -304.905)" fill="#2f2e41"/>
  <path id="Path_348" data-name="Path 348" d="M482.662,301.259h0a8.33,8.33,0,0,1-8.329-8.329c0-1.508,0-2.659,0-2.823a32.46,32.46,0,0,1,3.791-14.788,32.534,32.534,0,0,0-6.259,18.737c0,.164,0,1.316,0,2.822a8.33,8.33,0,0,0,8.329,8.33h0a8.336,8.336,0,0,0,8.019-6.07A8.3,8.3,0,0,1,482.662,301.259Z" transform="translate(-399.246 -244.971)" fill="#3f3d56"/>
  <path id="Path_349" data-name="Path 349" d="M567.426,279.372a15.8,15.8,0,0,1,13.739,22.07,15.8,15.8,0,1,0-26.516-16.534A15.766,15.766,0,0,1,567.426,279.372Z" transform="translate(-461.595 -245.035)" fill="#3f3d56"/>
  <path id="Path_350" data-name="Path 350" d="M582.579,487.622h0a8.587,8.587,0,0,1-8.587-8.449c-.1-6.528-.159-14.574-.159-15.494a23.2,23.2,0,0,1,.956-6.607h0a23.478,23.478,0,0,1,1.356-3.135,27.165,27.165,0,0,0-3.824,7.084h0a23.2,23.2,0,0,0-.956,6.607c0,.92.054,8.965.159,15.5a8.587,8.587,0,0,0,8.587,8.447h0a8.59,8.59,0,0,0,8.244-6.181A8.555,8.555,0,0,1,582.579,487.622Z" transform="translate(-474.185 -379.499)" fill="#3f3d56"/>
  <path id="Path_351" data-name="Path 351" d="M126.539,546.969h3.026L131,535.3h-4.466Z" transform="translate(-95.304 -403.166)" fill="#ffb8b8"/>
  <path id="Path_352" data-name="Path 352" d="M0,0H9.511V3.675H3.675A3.675,3.675,0,0,1,0,0Z" transform="translate(40.096 146.612) rotate(179.997)" fill="#2f2e41"/>
  <path id="Path_353" data-name="Path 353" d="M82.539,546.969h3.026L87,535.3H82.538Z" transform="translate(-62.165 -403.166)" fill="#ffb8b8"/>
  <path id="Path_354" data-name="Path 354" d="M0,0H9.511V3.675H3.675A3.675,3.675,0,0,1,0,0Z" transform="translate(29.235 146.612) rotate(179.997)" fill="#2f2e41"/>
  <path id="Path_355" data-name="Path 355" d="M258.563,596.844l-2.956-.155a1.154,1.154,0,0,1-1.091-1.226l3.533-39.115,16.269,4.39,1.567-.428-4.9,34.627a1.159,1.159,0,0,1-1.076.974l-3.186.148a1.154,1.154,0,0,1-1.217-1.184l.577-20.783a.385.385,0,0,0-.761-.089l-5.568,21.922a1.147,1.147,0,0,1-1.128.92Z" transform="translate(-235.544 -456.632)" fill="#2f2e41"/>
  <circle id="Ellipse_68" data-name="Ellipse 68" cx="6.063" cy="6.063" r="6.063" transform="translate(25.715 55.587)" fill="#ffb8b8"/>
  <path id="Path_356" data-name="Path 356" d="M265.479,444.979l.667,14.382.241,5.233a1.146,1.146,0,0,0,.759,1.031l15.634,5.663a1.1,1.1,0,0,0,.395.069,1.146,1.146,0,0,0,1.151-1.182l-.641-25.86a9.116,9.116,0,0,0-7.589-8.806c-.151-.023-.305-.046-.459-.067a8.947,8.947,0,0,0-7.2,2.33,9.191,9.191,0,0,0-2.959,7.207Z" transform="translate(-243.795 -365.518)" fill="#ccc"/>
  <path id="Path_357" data-name="Path 357" d="M345.635,535.4a2.484,2.484,0,0,1-1.325-3.758l-5.3-7.05,4.575-.283,4.333,6.738a2.5,2.5,0,0,1-2.281,4.353Z" transform="translate(-299.182 -432.503)" fill="#ffb8b8"/>
  <path id="Path_358" data-name="Path 358" d="M323.734,475.866a1.147,1.147,0,0,1-.627-.622l-7.987-19.03a3.076,3.076,0,1,1,5.673-2.381l7.987,19.03a1.155,1.155,0,0,1-.617,1.51l-3.546,1.488a1.146,1.146,0,0,1-.883,0Z" transform="translate(-281.01 -378.001)" fill="#ccc"/>
  <path id="Path_359" data-name="Path 359" d="M298.092,499.341l7.671-14.689a1.2,1.2,0,0,1,1.623-.509l11.135,5.815a1.2,1.2,0,0,1,.509,1.623l-7.671,14.689a1.2,1.2,0,0,1-1.623.509L298.6,500.963A1.2,1.2,0,0,1,298.092,499.341Z" transform="translate(-268.263 -402.147)" fill="#3f3d56"/>
  <path id="Path_360" data-name="Path 360" d="M285.2,500.706a2.484,2.484,0,0,0-3.83-1.1l-7.35-4.876L274,499.312l6.982,3.928a2.5,2.5,0,0,0,4.211-2.534Z" transform="translate(-250.224 -410.223)" fill="#ffb8b8"/>
  <path id="Path_361" data-name="Path 361" d="M254.559,463.562l-6.007-4.758a4.236,4.236,0,0,1-1.931-6.7l5.454-7.148A2.492,2.492,0,0,1,256.3,447.5l-4.316,7.059,6.342,3.008a1.154,1.154,0,0,1,.481,1.659l-2.56,4.052a1.156,1.156,0,0,1-.782.521l-.019,0A1.159,1.159,0,0,1,254.559,463.562Z" transform="translate(-228.879 -372.048)" fill="#ccc"/>
  <path id="Path_362" data-name="Path 362" d="M278.75,380.131a.527.527,0,0,1,.458-.7,1.217,1.217,0,0,1,.858.423,3.414,3.414,0,0,0,.758.651.652.652,0,0,0,.858-.155,1.194,1.194,0,0,0-.046-.927,9.11,9.11,0,0,1-.4-2.412,4.246,4.246,0,0,1,.607-2.579,3.412,3.412,0,0,1,2.924-1.243,19.65,19.65,0,0,1,3.285.582,1.1,1.1,0,0,0,1.074-.18,1.384,1.384,0,0,0,.056-1.235,8.578,8.578,0,0,0-1.3-3.1,4.665,4.665,0,0,0-2.977-1.676,7.143,7.143,0,0,0-3.323.377A8.91,8.91,0,0,0,277.216,371a7.217,7.217,0,0,0-1.377,5.332,6.583,6.583,0,0,0,2.44,4.16Z" transform="translate(-251.553 -314.422)" fill="#2f2e41"/>
  <path id="Path_363" data-name="Path 363" d="M571.847,681.306a11.353,11.353,0,0,1-4.214-17.646,11.354,11.354,0,1,0,15.444,16.406A11.347,11.347,0,0,1,571.847,681.306Z" transform="translate(-467.866 -537.456)" fill="#3f3d56"/>
</svg>
