<?xml version="1.0" encoding="utf-8"?>
<!-- Generator: Adobe Illustrator 25.2.1, SVG Export Plug-In . SVG Version: 6.00 Build 0)  -->
<svg version="1.1" id="Layer_1" xmlns="http://www.w3.org/2000/svg" xmlns:xlink="http://www.w3.org/1999/xlink" x="0px" y="0px"
	 viewBox="0 0 100 100" style="enable-background:new 0 0 100 100;" xml:space="preserve">
<path d="M94,44v-2.74c0-1.24-0.38-2.43-1.09-3.44L80.83,20.56C79.71,18.95,77.87,18,75.91,18H61.32c1.22-2.6,0.76-5.79-1.4-7.95
	c-2.73-2.73-7.18-2.73-9.9,0L42.07,18H24.08c-1.96,0-3.79,0.95-4.92,2.56L7.08,37.82C6.37,38.83,6,40.02,6,41.26V44
	c0,3.72,2.55,6.84,6,7.73V88H8c-1.11,0-2,0.89-2,2c0,1.1,0.89,2,2,2h84c1.1,0,2-0.9,2-2c0-1.11-0.9-2-2-2h-4V51.73
	C91.44,50.84,94,47.72,94,44z M52.84,12.88C53.43,12.3,54.19,12,54.96,12s1.55,0.3,2.16,0.91c1.16,1.17,1.16,3.07,0,4.24l-3.57,3.57
	l-4.28-4.27L52.84,12.88z M42.88,22.84l3.57-3.56l4.27,4.27l-3.57,3.57c-1.17,1.17-3.08,1.17-4.27-0.03
	C42.31,26.52,42,25.77,42,24.97S42.31,23.41,42.88,22.84z M48,88h-6V68h6V88z M58,88h-6V68h6V88z M84,68H72v-6h12V68z M84,58H70
	c-1.11,0-2,0.89-2,2v10c0,1.1,0.89,2,2,2h14v16H62V66c0-1.11-0.9-2-2-2H40c-1.11,0-2,0.89-2,2v22H16V72h14c1.1,0,2-0.9,2-2V60
	c0-1.11-0.9-2-2-2H16v-6.27c1.57-0.4,2.95-1.27,4-2.46c1.46,1.67,3.61,2.73,6,2.73s4.53-1.06,6-2.73c1.46,1.67,3.61,2.73,6,2.73
	s4.53-1.06,6-2.73c1.46,1.67,3.61,2.73,6,2.73s4.53-1.06,6-2.73c1.46,1.67,3.61,2.73,6,2.73s4.53-1.06,6-2.73
	c1.46,1.67,3.61,2.73,6,2.73s4.53-1.06,6-2.73c1.04,1.19,2.42,2.06,4,2.46V58z M16,68v-6h12v6H16z M86,48c-2.21,0-4-1.8-4-4v-4
	c0-1.11-0.9-2-2-2c-1.11,0-2,0.89-2,2v4c0,2.2-1.8,4-4,4c-2.21,0-4-1.8-4-4v-4c0-1.11-0.9-2-2-2c-1.11,0-2,0.89-2,2v4
	c0,2.2-1.8,4-4,4c-2.21,0-4-1.8-4-4v-4c0-1.11-0.9-2-2-2c-1.11,0-2,0.89-2,2v4c0,2.2-1.8,4-4,4c-2.21,0-4-1.8-4-4v-4
	c0-1.11-0.9-2-2-2c-1.11,0-2,0.89-2,2v4c0,2.2-1.8,4-4,4c-2.21,0-4-1.8-4-4v-4c0-1.11-0.9-2-2-2c-1.11,0-2,0.89-2,2v4
	c0,2.2-1.8,4-4,4c-2.21,0-4-1.8-4-4v-4c0-1.11-0.9-2-2-2c-1.11,0-2,0.89-2,2v4c0,2.2-1.8,4-4,4c-2.21,0-4-1.8-4-4v-2.74
	c0-0.41,0.12-0.81,0.36-1.15l12.08-17.26c0.37-0.53,0.99-0.85,1.64-0.85h14.59c-1.21,2.59-0.75,5.78,1.41,7.94
	c1.36,1.37,3.15,2.05,4.95,2.05c1.79,0,3.58-0.68,4.95-2.05l4.98-4.98L57.92,22h17.99c0.66,0,1.27,0.32,1.64,0.85l12.08,17.26
	c0.24,0.34,0.37,0.74,0.37,1.15V44C90,46.2,88.2,48,86,48z"/>
</svg>
